<svg xmlns="http://www.w3.org/2000/svg" viewBox="0 0 512 512">
  <rect width="512" height="512" rx="92" fill="#101923"/>
  <circle cx="112" cy="118" r="44" fill="#38aeea"/>
  <circle cx="392" cy="386" r="58" fill="#d6a84f"/>
  <path d="M104 180h304c22 0 40 18 40 40v174c0 22-18 40-40 40H104c-22 0-40-18-40-40V220c0-22 18-40 40-40Z" fill="#f7fbff"/>
  <path d="M134 158c0-62 48-110 122-110s122 48 122 110v48h-48v-48c0-36-28-64-74-64s-74 28-74 64v48h-48v-48Z" fill="#38aeea"/>
  <path d="M154 274h204" stroke="#101923" stroke-width="26" stroke-linecap="round"/>
  <path d="M154 336h138" stroke="#101923" stroke-width="26" stroke-linecap="round"/>
  <circle cx="374" cy="334" r="42" fill="#e0528d"/>
  <path d="M356 334l13 13 27-31" fill="none" stroke="#fff8ec" stroke-width="16" stroke-linecap="round" stroke-linejoin="round"/>
  <text x="256" y="414" text-anchor="middle" font-family="Arial, sans-serif" font-size="58" font-weight="900" fill="#101923">ADM</text>
</svg>
